<?xml version='1.0' encoding='utf-8'?>
<svg xmlns="http://www.w3.org/2000/svg" viewBox="455.65 800.37 106.41 131.21" fill="none"><path fill="#6E5EF2" d="M461.565 879.067C463.166 865.907 461.161 850.36 461.79 836.801C462.198 827.993 459.649 818.612 467.237 811.62C475.111 804.366 489.564 809.877 490.693 820.118C491.775 829.937 490.569 842.037 491.03 852.028C490.932 858.153 491.586 874.909 490.866 880.168C489.689 880.03 488.429 880.219 487.22 880.317C487.251 880.13 487.432 879.168 487.431 879.018C487.343 860.354 488.033 840.117 487.104 821.606C486.487 809.295 467.045 808.283 465.882 821.591C465.315 828.081 465.483 834.751 465.497 841.603L465.534 879.284C464.571 879.163 462.608 879.12 461.565 879.067Z" /><path fill="#45BAEC" d="M510.545 837.36C512.367 837.588 512.499 837.359 513.844 838.361C514.264 842.457 514.059 849.303 514.046 853.614L513.92 880.581C512.382 880.48 512.358 880.514 510.918 880.016C510.03 877.81 510.528 842.512 510.545 837.36Z" /><path fill="#45BAEC" d="M554.523 881.672L554.465 854.3C554.453 850.37 553.413 839.501 556.4 837.043C556.698 837.402 556.997 837.762 557.295 838.122C558.062 849.738 557.856 871.722 557.689 882.448L554.523 881.672Z" /><path fill="#45BAEC" d="M532.537 881.073C532.574 875.832 532.019 840.329 533.144 838.014C534.41 837.752 534.434 837.612 535.599 838.078C536.534 840.373 536.052 876.043 536.049 881.777C529.965 888.835 520.329 897.425 513.466 904.816C513.439 911.8 513.446 918.939 513.159 925.92C513.106 927.205 513.23 926.77 512.298 927.576L511.289 927.124C509.557 923.841 510.19 909.412 510.115 904.526C506.193 900.202 487.922 883.421 487.22 880.317C488.429 880.219 489.689 880.03 490.866 880.168C493.002 883.008 508.206 897.442 511.74 901.077C517.825 895.981 527.033 886.724 532.537 881.073Z" /><path fill="#EEECEC" d="M461.565 879.067C462.608 879.12 464.571 879.163 465.534 879.284C475.493 889.806 486.49 899.611 496.118 910.473C496.189 914.796 496.82 922.934 494.935 926.603L494.212 926.607C492.417 923.059 492.875 915.884 492.897 911.683C488.654 907.221 462.187 881.75 461.565 879.067Z" /><path fill="#EEECEC" d="M554.523 881.672L557.689 882.448C552.625 889.156 535.97 904.434 529.01 911.977C529.033 915.95 529.428 923.595 527.719 926.908L527.1 926.755C525.465 922.412 526.026 915.244 526.129 910.407C528.508 908.303 532.272 904.065 534.662 901.643L554.523 881.672Z" /></svg>