<?xml version="1.0" encoding="utf-8" ?><svg xmlns="http://www.w3.org/2000/svg" xmlns:xlink="http://www.w3.org/1999/xlink" width="1024" height="1024" viewBox="0 0 1024 1024"><path fill="#0A0511" d="M0 0L1024 0L1024 1024L0 1024L0 0Z"/><path fill="#EEECEC" d="M789.329 497.608C802.612 496.285 809.465 499.527 818.051 509.343L817.951 499.018L826.557 499.032L826.609 537.896C826.617 549.585 827.6 562.512 823.158 573.473C816.041 591.032 793.436 594.368 777.624 587.972C769.778 584.798 764.757 578.54 761.796 570.825C766.216 569.43 768.777 567.376 771.06 571.871C778.027 585.411 800.362 586.91 810.987 577.233C817.517 571.285 817.717 558.284 818.105 550.083C813.618 556.093 809.01 559.755 801.265 561.35C770.698 567.647 752.858 534.96 767.954 510.235C772.478 502.825 780.886 499.229 789.329 497.608Z"/><path fill="#0A0511" d="M790.193 505.587C803.502 503.049 816.361 511.74 818.969 525.036C821.576 538.332 812.952 551.236 799.671 553.913C786.29 556.61 773.269 547.908 770.642 534.514C768.015 521.12 776.785 508.144 790.193 505.587Z"/><path fill="#EEECEC" d="M682.087 497.335C700.209 495.535 716.383 508.704 718.294 526.814C720.205 544.924 707.136 561.179 689.038 563.202C670.782 565.242 654.354 552.033 652.426 533.765C650.498 515.497 663.807 499.15 682.087 497.335Z"/><path fill="#0A0511" d="M681.043 505.923C694.619 503.527 707.566 512.593 709.957 526.17C712.348 539.747 703.276 552.691 689.698 555.076C676.128 557.46 663.193 548.394 660.804 534.825C658.415 521.256 667.474 508.318 681.043 505.923Z"/><path fill="#EEECEC" d="M865.484 497.633C866.972 497.459 870.124 497.353 871.61 497.368C879.692 497.404 887.43 500.645 893.126 506.379C901.092 514.512 902.237 522.74 902.164 533.525L847.601 533.616C850.347 554.896 871.761 563.035 887.528 549.795C889.849 547.131 890.702 545.628 892.389 542.58L900.765 543.655C893.721 562.847 867.225 569.341 852.398 558.206C828.839 540.514 835.077 503.557 865.484 497.633Z"/><path fill="#0A0511" d="M865.903 505.115C882.408 503.013 889.895 510.981 893.988 525.995C887.955 526.138 881.752 526.123 875.703 526.18L847.675 526.089C849.506 513.818 853.228 507.852 865.903 505.115Z"/><path fill="#6E5EF2" d="M438.132 497.614C439.986 497.525 441.84 497.462 443.696 497.427C457.106 497.241 468.891 504.375 473.529 517.24C475.682 523.213 475.67 527.137 475.714 533.479L421.23 533.456C423.111 554.784 444.701 562.336 460.682 549.428C463.128 547.15 464.282 545.21 465.724 542.305L475.145 543.496C469.433 552.795 464.491 559.387 453.356 562.282C408.74 573.882 395.676 506.934 438.132 497.614Z"/><path fill="#0A0511" d="M438.333 505.629C455.5 504.375 463.778 508.829 467.262 526.116C462.362 526.333 456.59 526.196 451.625 526.202L421.245 526.109C423.81 514.3 425.885 509.199 438.333 505.629Z"/><path fill="#6E5EF2" d="M495.589 509.13C504.843 495.508 520.582 492.909 532.652 504.562C534.926 503.657 537.803 503.556 540.046 504.609C553.923 492.854 577.071 494.734 580.154 515.671C581.015 521.523 580.598 528.619 580.571 534.612L580.549 562.048L572.684 562.101C572.398 552.728 572.568 542.834 572.605 533.275C572.655 520.343 574.004 503.308 555.225 505.189C541.845 506.529 537.875 517.447 537.908 529.403C537.939 540.158 537.893 551.159 537.91 562.013L530.045 562.046C529.742 547.86 530.757 532.336 529.566 518.304C528.461 505.298 511.198 500.989 502.544 509.697C499.778 512.48 497.406 516.71 496.639 520.773C495.277 533.711 495.791 549.048 495.769 562.017L487.99 562.045L487.972 498.982L495.744 498.847L495.589 509.13Z"/><path fill="#030209" d="M532.652 504.562C534.926 503.657 537.803 503.556 540.046 504.609C538.58 506.495 537.504 508.161 536.203 510.147L532.652 504.562Z"/><path fill="#6E5EF2" d="M325.163 472.582C332.913 471.944 341.209 471.852 348.445 475.069C355.153 477.989 360.39 483.507 362.955 490.359C363.814 492.66 365.063 496.802 364.052 499.009C361.89 499.738 358.789 499.506 356.409 499.496C354.454 483.795 342.673 478.81 328.126 480.468C318.837 480.509 308.461 489.791 311.204 500.119C315.436 516.046 344.673 511.043 356.44 520.2C367.106 528.5 368.535 540.347 361.662 551.117C356.533 559.155 348.361 561.948 339.598 563.47C318.531 564.011 304.118 558.29 299.836 535.537C302.84 535.462 305.843 535.344 308.844 535.183C309.015 536.4 309.228 537.611 309.485 538.813C314.566 562.497 361.752 561.083 355.913 533.771C354.22 525.852 340.613 522.497 333.697 521.858C312.257 519.876 294.401 509.251 305.177 484.876C308.307 477.859 317.511 474.469 325.163 472.582Z"/><path fill="#EEECEC" d="M595.493 473.206C614.298 473.141 636.893 472.516 655.44 473.326L655.436 480.826C638.481 481.191 620.819 480.941 603.813 480.927C603.696 492.662 603.83 504.634 603.843 516.387L641.444 516.395L646.197 516.471L646.193 524.339L603.858 524.337C603.497 536.443 603.74 549.872 603.702 562.084L595.464 562.113L595.493 473.206Z"/><path fill="#6E5EF2" d="M124.998 529.864C125.451 527.684 125.176 513.163 125.153 509.862L124.966 470.204C124.934 461.058 123.404 445.826 128.168 437.843C131.911 431.572 140.065 427.457 147.51 428.175C152.818 428.704 157.683 431.364 160.992 435.548C166.867 442.957 165.473 455.342 165.432 464.465L165.278 493.084C165.229 501.78 165.78 522.147 164.894 529.536C162.785 528.849 162.443 529.011 160.16 529.265C160.754 524.559 160.44 517.804 160.446 512.933L160.479 485.853C160.495 472.887 160.941 457.805 159.894 444.851C159.722 442.725 157.758 439.64 156.29 438.036C153.573 435.028 149.767 433.228 145.718 433.037C141.544 432.867 137.11 434.988 134.245 437.931C132.29 439.903 131.003 442.44 130.567 445.183C129.751 450.122 130.2 465.962 130.197 471.841L130.198 529.549C127.845 529.459 127.24 529.345 124.998 529.864Z"/><path fill="#6E5EF2" d="M446.013 204.636C446.919 198.907 446.357 188.542 446.337 182.408L446.202 138.237C446.196 131.814 445.806 123.833 447.118 117.752C448.976 109.146 459.945 102.266 468.509 103.84C488.136 107.449 485.821 124.638 485.754 138.993L485.598 170.132L485.528 192.941C485.524 195.697 485.679 202.316 485.391 204.819C483.789 204.968 482.052 205.043 480.521 205.478C481.124 201.669 480.775 194.375 480.784 190.19L480.758 159.912L480.724 135.626C480.718 129.022 481.867 119.115 477.382 114.036C474.52 110.837 470.485 108.933 466.197 108.757C459.632 108.553 452.11 114.075 451.593 120.855C450.818 131.021 451.447 141.463 451.2 151.665C450.774 169.343 451.812 187.414 451.192 205.043C448.808 204.349 448.557 204.449 446.013 204.636Z"/><path fill="#6E5EF2" d="M382.045 480.495L390.362 480.519L390.428 498.964C396.546 498.879 402.806 498.943 408.937 498.938L408.948 506.027C402.901 506.504 396.483 506.423 390.394 506.468C390.515 519.622 390.125 532.926 390.393 545.96C390.598 555.971 398.072 555.835 405.627 554.415C406.893 554.177 407.096 554.02 408.005 554.746L408.109 556.375C408.189 558.253 408.377 559.41 407.812 561.216C406.502 562.542 400.837 563.024 398.759 563.103C380.16 563.811 382.379 547.204 382.294 534.693L382.07 506.508L368.552 506.539L368.611 498.55L382.106 498.565L382.045 480.495Z"/><path fill="#45BAEC" d="M222.508 531.06C222.623 510.802 222.626 490.544 222.518 470.286L223.234 469.577C224.639 469.529 225.609 469.322 226.798 470.019C227.37 473.651 227.007 485.515 227.017 490.067L227.273 532.5C217.229 542.848 206.315 553.194 195.975 563.322L195.909 587.656C195.906 590.269 196.559 599.581 195.07 600.886C193.035 600.804 193.362 601.109 191.856 600.171C191.214 596.825 191.487 590.71 191.492 587.038L191.529 563.415C182.241 552.838 169.775 542.979 160.928 532.026C160.46 531.446 160.264 530.001 160.16 529.265C162.443 529.011 162.785 528.849 164.894 529.536C166.461 532.694 189.196 554.011 193.94 559.219C202.653 550.046 213.362 540.137 222.508 531.06Z"/><path fill="#45BAEC" d="M540.852 205.624L540.875 163.065C540.875 159.121 539.889 147.686 541.536 145.017C543.23 144.088 542.309 144.351 544.46 144.503C545.49 145.429 545.312 145.126 545.335 146.636C545.65 166.861 544.979 187.216 545.327 207.428C536.449 217.177 525.039 227.79 515.565 237.393C515.553 242.13 516.373 272.269 514.903 274.401C513.062 275.193 514.031 275.018 511.858 274.686C510.605 273.023 511.328 241.983 511.237 237.158C506.168 232.082 482.623 209.639 480.521 205.478C482.052 205.043 483.789 204.968 485.391 204.819C491.153 212.081 505.892 225.482 513.227 233.373C521.368 224.41 532.092 214.254 540.852 205.624Z"/><path fill="#EEECEC" d="M759.334 497.684C760.62 497.604 760.177 497.567 761.397 497.894C762.437 499.71 761.965 503.523 761.865 505.802C738.211 506.034 736.888 523.783 737.79 542.119C738.088 548.18 737.772 555.56 737.75 561.716L729.864 561.762L729.873 555.25L729.511 498.889C732.254 498.788 735.274 498.875 738.04 498.897L738.096 509.267C744.445 501.234 749.436 498.955 759.334 497.684Z"/><path fill="#6E5EF2" d="M461.565 879.067C463.166 865.907 461.161 850.36 461.79 836.801C462.198 827.993 459.649 818.612 467.237 811.62C475.111 804.366 489.564 809.877 490.693 820.118C491.775 829.937 490.569 842.037 491.03 852.028C490.932 858.153 491.586 874.909 490.866 880.168C489.689 880.03 488.429 880.219 487.22 880.317C487.251 880.13 487.432 879.168 487.431 879.018C487.343 860.354 488.033 840.117 487.104 821.606C486.487 809.295 467.045 808.283 465.882 821.591C465.315 828.081 465.483 834.751 465.497 841.603L465.534 879.284C464.571 879.163 462.608 879.12 461.565 879.067Z"/><path fill="#45BAEC" d="M532.537 881.073C532.574 875.832 532.019 840.329 533.144 838.014C534.41 837.752 534.434 837.612 535.599 838.078C536.534 840.373 536.052 876.043 536.049 881.777C529.965 888.835 520.329 897.425 513.466 904.816C513.439 911.8 513.446 918.939 513.159 925.92C513.106 927.205 513.23 926.77 512.298 927.576L511.289 927.124C509.557 923.841 510.19 909.412 510.115 904.526C506.193 900.202 487.922 883.421 487.22 880.317C488.429 880.219 489.689 880.03 490.866 880.168C493.002 883.008 508.206 897.442 511.74 901.077C517.825 895.981 527.033 886.724 532.537 881.073Z"/><path fill="#EEECEC" d="M124.998 529.864C127.24 529.345 127.845 529.459 130.198 529.549C132.584 532.885 143.526 543.543 146.956 546.84C155.784 555.325 164.312 564.37 173.026 572.875C173.049 577.621 173.847 598.865 171.97 600.935L170.046 601C168.253 598.492 168.912 578.725 168.908 574.619C158.437 563.898 147.899 553.242 137.296 542.651C135.46 540.803 125.867 531.382 124.998 529.864Z"/><path fill="#EEECEC" d="M446.013 204.636C448.557 204.449 448.808 204.349 451.192 205.043C452.124 206.45 462.204 216.065 464.22 218.05C473.887 227.547 483.467 237.133 492.959 246.805C492.998 251.63 493.785 272.138 491.937 274.717C489.748 274.658 490.445 275.11 489.303 273.971C488.547 268.744 488.982 254.147 488.981 248.251C481.617 240.809 474.154 233.466 466.593 226.225C462.374 222.153 449.028 209.252 446.013 204.636Z"/><path fill="#EEECEC" d="M253.908 531.652C255.483 532.104 256.983 532.618 258.609 532.78C245.422 547.131 230.419 560.632 217.043 574.908C216.947 578.952 217.74 599.085 216.163 600.813C214.431 600.773 214.483 601.065 213.312 600.224C212.59 594.943 213.02 578.657 213.032 572.839C225.779 560.079 242.005 544.766 253.908 531.652Z"/><path fill="#EEECEC" d="M571.624 206.347C572.999 206.658 574.703 206.924 575.887 207.521C570.397 213.786 561.149 222.417 555.071 228.676C549.964 233.935 540.295 244.08 534.998 248.48C534.962 253.18 535.89 272.679 533.747 274.973L531.823 274.792C530.238 272.228 531.001 251.289 531.024 247.248C544.227 233.473 558.311 220.162 571.624 206.347Z"/><path fill="#45BAEC" d="M253.908 531.652L253.973 490.197C253.976 486.041 253.13 472.516 254.778 469.718C256.076 469.117 256.49 469.319 257.933 469.471C258.654 470.394 259.11 528.015 258.609 532.78C256.983 532.618 255.483 532.104 253.908 531.652Z"/><path fill="#45BAEC" d="M512.194 144.43C513.851 144.402 515.327 144.141 516.666 144.979C517.229 149.662 516.905 161.181 516.898 166.267L516.927 205.127C515.246 205.141 513.688 205.375 512.275 204.593C511.771 199.976 512.1 188.97 512.124 183.769L512.194 144.43Z"/><path fill="#45BAEC" d="M571.624 206.347C571.591 199.986 570.457 145.751 572.248 144.343C572.903 143.827 573.486 144.142 574.214 144.265C577.445 146.74 575.992 157.932 576 162.288L576.145 193.275C576.156 195.603 576.285 205.642 575.887 207.521C574.703 206.924 572.999 206.658 571.624 206.347Z"/><path fill="#45BAEC" d="M192.472 469.4C194.257 469.365 195.086 469.223 196.783 469.837C197.303 474.263 197.027 485.564 197.027 490.495L197.056 530.655C195.385 530.727 194.177 530.964 192.688 530.259C192.152 527.696 192.389 514.889 192.395 511.566L192.472 469.4Z"/><path fill="#EEECEC" d="M461.565 879.067C462.608 879.12 464.571 879.163 465.534 879.284C475.493 889.806 486.49 899.611 496.118 910.473C496.189 914.796 496.82 922.934 494.935 926.603L494.212 926.607C492.417 923.059 492.875 915.884 492.897 911.683C488.654 907.221 462.187 881.75 461.565 879.067Z"/><path fill="#EEECEC" d="M554.523 881.672L557.689 882.448C552.625 889.156 535.97 904.434 529.01 911.977C529.033 915.95 529.428 923.595 527.719 926.908L527.1 926.755C525.465 922.412 526.026 915.244 526.129 910.407C528.508 908.303 532.272 904.065 534.662 901.643L554.523 881.672Z"/><path fill="#45BAEC" d="M510.545 837.36C512.367 837.588 512.499 837.359 513.844 838.361C514.264 842.457 514.059 849.303 514.046 853.614L513.92 880.581C512.382 880.48 512.358 880.514 510.918 880.016C510.03 877.81 510.528 842.512 510.545 837.36Z"/><path fill="#45BAEC" d="M554.523 881.672L554.465 854.3C554.453 850.37 553.413 839.501 556.4 837.043C556.698 837.402 556.997 837.762 557.295 838.122C558.062 849.738 557.856 871.722 557.689 882.448L554.523 881.672Z"/></svg>