<?xml version='1.0' encoding='utf-8'?>
<svg xmlns="http://www.w3.org/2000/svg" viewBox="441.81 98.27 139.64 180.93" fill="none"><path fill="#6E5EF2" d="M446.013 204.636C446.919 198.907 446.357 188.542 446.337 182.408L446.202 138.237C446.196 131.814 445.806 123.833 447.118 117.752C448.976 109.146 459.945 102.266 468.509 103.84C488.136 107.449 485.821 124.638 485.754 138.993L485.598 170.132L485.528 192.941C485.524 195.697 485.679 202.316 485.391 204.819C483.789 204.968 482.052 205.043 480.521 205.478C481.124 201.669 480.775 194.375 480.784 190.19L480.758 159.912L480.724 135.626C480.718 129.022 481.867 119.115 477.382 114.036C474.52 110.837 470.485 108.933 466.197 108.757C459.632 108.553 452.11 114.075 451.593 120.855C450.818 131.021 451.447 141.463 451.2 151.665C450.774 169.343 451.812 187.414 451.192 205.043C448.808 204.349 448.557 204.449 446.013 204.636Z" /><path fill="#45BAEC" d="M512.194 144.43C513.851 144.402 515.327 144.141 516.666 144.979C517.229 149.662 516.905 161.181 516.898 166.267L516.927 205.127C515.246 205.141 513.688 205.375 512.275 204.593C511.771 199.976 512.1 188.97 512.124 183.769L512.194 144.43Z" /><path fill="#45BAEC" d="M571.624 206.347C571.591 199.986 570.457 145.751 572.248 144.343C572.903 143.827 573.486 144.142 574.214 144.265C577.445 146.74 575.992 157.932 576 162.288L576.145 193.275C576.156 195.603 576.285 205.642 575.887 207.521C574.703 206.924 572.999 206.658 571.624 206.347Z" /><path fill="#45BAEC" d="M540.852 205.624L540.875 163.065C540.875 159.121 539.889 147.686 541.536 145.017C543.23 144.088 542.309 144.351 544.46 144.503C545.49 145.429 545.312 145.126 545.335 146.636C545.65 166.861 544.979 187.216 545.327 207.428C536.449 217.177 525.039 227.79 515.565 237.393C515.553 242.13 516.373 272.269 514.903 274.401C513.062 275.193 514.031 275.018 511.858 274.686C510.605 273.023 511.328 241.983 511.237 237.158C506.168 232.082 482.623 209.639 480.521 205.478C482.052 205.043 483.789 204.968 485.391 204.819C491.153 212.081 505.892 225.482 513.227 233.373C521.368 224.41 532.092 214.254 540.852 205.624Z" /><path fill="#EEECEC" d="M446.013 204.636C448.557 204.449 448.808 204.349 451.192 205.043C452.124 206.45 462.204 216.065 464.22 218.05C473.887 227.547 483.467 237.133 492.959 246.805C492.998 251.63 493.785 272.138 491.937 274.717C489.748 274.658 490.445 275.11 489.303 273.971C488.547 268.744 488.982 254.147 488.981 248.251C481.617 240.809 474.154 233.466 466.593 226.225C462.374 222.153 449.028 209.252 446.013 204.636Z" /><path fill="#EEECEC" d="M571.624 206.347C572.999 206.658 574.703 206.924 575.887 207.521C570.397 213.786 561.149 222.417 555.071 228.676C549.964 233.935 540.295 244.08 534.998 248.48C534.962 253.18 535.89 272.679 533.747 274.973L531.823 274.792C530.238 272.228 531.001 251.289 531.024 247.248C544.227 233.473 558.311 220.162 571.624 206.347Z" /></svg>